PathFileType	4	(X/Y/Z)	D:\TRACE\spot_10-12-23\spot_arm_motion_2_5-v60.trc
DataRate	CameraRate	NumFrames	NumMarkers	Units	OrigDataRate	OrigDataStartFrame	OrigNumFrames
100.00	100.00	      14	9	mm	100.00	6126	      7000
Frame#	Time	front left toe			Front right toe			aft left toe			aft right toe			Arm			FL body			FR body			AL Body			AR Body			
		X1	Y1	Z1	X2	Y2	Z2	X3	Y3	Z3	X4	Y4	Z4	X5	Y5	Z5	X6	Y6	Z6	X7	Y7	Z7	X8	Y8	Z8	X9	Y9	Z9	

6126	61.250	-267.90329	16.20188	-15.00643	230.50989	22.89529	-2.12811	-267.04532	64.31487	583.16528	206.75671	64.30759	591.02441	0.82192	779.37280	-758.96527	-121.51337	538.95398	-70.34373	31.36024	544.08051	-69.34074	-133.86058	617.60034	810.55133	16.60394	616.58936	813.94037	
6127	61.260	-266.84659	16.38196	-14.82156	231.49498	22.90847	-1.81831	-266.03973	63.50331	583.27881	207.66876	63.70612	590.99005	1.17983	779.86658	-759.11084	-120.59219	538.65649	-70.31039	32.04466	543.76093	-69.32235	-133.41698	617.30286	809.53497	17.60829	616.42737	813.83813	
6128	61.270	-265.70755	16.23941	-14.65838	232.70332	23.28366	-1.52290	-265.18118	62.90276	583.36017	208.72617	62.82046	591.20386	1.91244	779.93860	-758.99268	-120.16785	538.57953	-70.32023	32.98312	543.43542	-69.15270	-132.51218	617.11450	809.53503	13.56534	605.84869	790.95062	
6129	61.280	-264.49118	16.18707	-14.37970	233.61401	23.10939	-1.59020	-264.03397	62.18961	583.73889	209.64615	62.16419	591.31726	2.52701	779.87323	-758.72766	-119.19369	538.35352	-70.45821	33.53008	543.46014	-69.59250	-131.75983	616.97131	809.51489	19.10585	616.11066	813.76556	
6130	61.290	-263.90283	16.49694	-14.33365	234.29565	23.52996	-1.35250	-263.17892	61.57138	583.86206	210.82219	61.44665	591.66364	2.77129	779.71600	-758.41498	-118.36411	538.23505	-70.51689	34.29689	543.41681	-69.69292	-130.82295	616.96082	809.57544	19.91276	616.02515	813.84943	
6131	61.300	-262.67715	16.54472	-14.08545	235.70187	23.39763	-1.06240	-261.89926	60.64316	583.93170	211.82834	60.72356	591.91394	2.92033	778.94543	-758.21606	-117.33325	538.04218	-70.55848	35.54795	543.06348	-69.22538	-129.98271	616.70496	810.14404	20.57767	615.61993	813.94922	
6132	61.310	-261.55255	16.51066	-13.74140	236.75984	23.33684	-0.73610	-261.06039	59.82405	584.05292	212.78677	60.05317	592.07031	3.10214	777.77637	-758.12964	-116.24361	538.09784	-70.46892	36.72385	542.99792	-69.02829	-129.40472	616.30750	809.62573	21.35988	615.34625	814.12750	
6133	61.320	-260.71735	16.85858	-13.75159	237.88268	23.33133	-0.60360	-259.92108	58.95759	584.29663	213.92921	58.98219	592.31537	3.29117	776.05341	-757.94482	-114.72842	538.14844	-70.51588	37.84322	543.33148	-69.45985	-128.37752	615.80634	809.73669	22.26191	614.85449	814.26788	
6134	61.330	-259.38571	16.93954	-13.66060	239.07901	23.34622	-0.37788	-258.93121	58.11583	584.59839	214.77141	58.25793	592.49353	2.92964	773.88104	-757.86682	-113.68972	538.49518	-70.57362	39.19990	543.27917	-69.38512	-127.85229	615.34229	809.60992	22.44333	614.64728	814.10468	
6135	61.340	-258.06720	16.82817	-13.26022	240.33206	23.24145	-0.13657	-257.92307	57.25333	584.67694	215.98212	57.54038	592.79895	2.58259	771.03101	-757.82477	-112.26161	538.52057	-70.53620	40.37859	543.60626	-69.40350	-127.34661	615.20660	809.74603	23.27039	614.11066	814.20764	
6136	61.350	-257.26501	17.33679	-13.13979	241.53853	23.09530	0.06190	-256.90182	56.46330	584.83594	217.08089	56.66880	593.26605	1.30978	767.63092	-757.89758	-110.70837	538.63556	-70.42293	41.93485	543.78601	-69.05559	-126.28593	614.93005	809.86816	24.34440	613.76563	814.56274	
6137	61.360	-255.73569	17.18100	-13.13501	242.48340	23.42083	0.57368	-255.81512	55.39935	585.26233	218.24034	55.64633	593.55164	0.30919	763.65936	-757.84863	-109.45295	538.84589	-70.47254	43.30427	543.74670	-69.03064	-125.22432	614.55548	810.17676	25.09133	613.49023	814.65723	
6138	61.370	-254.84932	17.30448	-12.83883	243.58632	23.69565	0.80489	-254.48441	54.32032	585.42047	219.56163	55.07082	593.88934	-0.85599	759.19330	-757.80548	-108.00534	538.67480	-70.49133	44.61611	543.77118	-68.95997	-124.04951	614.08673	809.81555	26.29112	613.29181	814.70667	
6139	61.380	-253.79892	17.45146	-12.68090	244.84746	23.49537	1.08946	-253.49202	53.52397	585.57819	220.40317	53.75894	594.00415	-2.43297	754.55554	-757.82410	-106.59321	538.64063	-70.14185	46.18575	543.59741	-68.30054	-123.53255	614.40582	810.54840	27.19121	613.34125	814.79803	
